<?xml version="1.0" encoding="UTF-8" standalone="no"?>
<!-- Created with Inkscape (http://www.inkscape.org/) -->

<svg
   width="64.0px"
   height="64.0px"
   viewBox="0 0 64.0 64.0"
   version="1.1"
   id="SVGRoot"
   sodipodi:docname="7ee.svg"
   inkscape:version="1.1 (c68e22c387, 2021-05-23)"
   inkscape:export-filename="E:\Documents\Desktop\7ee big.png"
   inkscape:export-xdpi="750"
   inkscape:export-ydpi="750"
   xmlns:inkscape="http://www.inkscape.org/namespaces/inkscape"
   xmlns:sodipodi="http://sodipodi.sourceforge.net/DTD/sodipodi-0.dtd"
   xmlns:xlink="http://www.w3.org/1999/xlink"
   xmlns="http://www.w3.org/2000/svg"
   xmlns:svg="http://www.w3.org/2000/svg">
  <sodipodi:namedview
     id="namedview24"
     pagecolor="#ffffff"
     bordercolor="#666666"
     borderopacity="1.0"
     inkscape:pageshadow="2"
     inkscape:pageopacity="0.0"
     inkscape:pagecheckerboard="0"
     inkscape:document-units="px"
     showgrid="true"
     inkscape:zoom="3.6203867"
     inkscape:cx="22.235194"
     inkscape:cy="43.91796"
     inkscape:window-width="1336"
     inkscape:window-height="1041"
     inkscape:window-x="2211"
     inkscape:window-y="0"
     inkscape:window-maximized="0"
     inkscape:current-layer="layer2">
    <inkscape:grid
       type="xygrid"
       id="grid30" />
  </sodipodi:namedview>
  <defs
     id="defs19">
    <linearGradient
       inkscape:collect="always"
       id="linearGradient1759">
      <stop
         style="stop-color:#f2f2f2;stop-opacity:1;"
         offset="0"
         id="stop1755" />
      <stop
         style="stop-color:#f2f2f2;stop-opacity:0;"
         offset="1"
         id="stop1757" />
    </linearGradient>
    <linearGradient
       inkscape:collect="always"
       id="linearGradient1083">
      <stop
         style="stop-color:#f9f9f9;stop-opacity:1;"
         offset="0"
         id="stop1079" />
      <stop
         style="stop-color:#f9f9f9;stop-opacity:0;"
         offset="1"
         id="stop1081" />
    </linearGradient>
    <linearGradient
       id="linearGradient3026"
       inkscape:swatch="solid">
      <stop
         style="stop-color:#cccccc;stop-opacity:1;"
         offset="0"
         id="stop3024" />
    </linearGradient>
    <linearGradient
       id="linearGradient1048"
       inkscape:swatch="solid">
      <stop
         style="stop-color:#cccccc;stop-opacity:1;"
         offset="0"
         id="stop1046" />
    </linearGradient>
    <marker
       style="overflow:visible;"
       id="Arrow1Lend"
       refX="0.0"
       refY="0.0"
       orient="auto"
       inkscape:stockid="Arrow1Lend"
       inkscape:isstock="true">
      <path
         transform="scale(0.8) rotate(180) translate(12.5,0)"
         style="fill-rule:evenodd;fill:context-stroke;stroke:context-stroke;stroke-width:1.0pt;"
         d="M 0.0,0.0 L 5.0,-5.0 L -12.5,0.0 L 5.0,5.0 L 0.0,0.0 z "
         id="path4610" />
    </marker>
    <linearGradient
       inkscape:collect="always"
       xlink:href="#linearGradient1083"
       id="linearGradient1085"
       x1="0"
       y1="32.5"
       x2="65"
       y2="32.5"
       gradientUnits="userSpaceOnUse" />
    <linearGradient
       inkscape:collect="always"
       xlink:href="#linearGradient1083"
       id="linearGradient1087"
       x1="0"
       y1="32.455097"
       x2="64.910193"
       y2="32.455097"
       gradientUnits="userSpaceOnUse" />
    <linearGradient
       inkscape:collect="always"
       xlink:href="#linearGradient1083"
       id="linearGradient1089"
       x1="0"
       y1="32.455097"
       x2="64.910193"
       y2="32.455097"
       gradientUnits="userSpaceOnUse" />
    <linearGradient
       inkscape:collect="always"
       xlink:href="#linearGradient1083"
       id="linearGradient1091"
       x1="0"
       y1="32.455097"
       x2="64.910193"
       y2="32.455097"
       gradientUnits="userSpaceOnUse" />
    <linearGradient
       inkscape:collect="always"
       xlink:href="#linearGradient1083"
       id="linearGradient1093"
       x1="0"
       y1="32.455097"
       x2="64.910193"
       y2="32.455097"
       gradientUnits="userSpaceOnUse" />
    <linearGradient
       inkscape:collect="always"
       xlink:href="#linearGradient1759"
       id="linearGradient1761"
       x1="0"
       y1="0"
       x2="90"
       y2="90"
       gradientUnits="userSpaceOnUse" />
  </defs>
  <g
     inkscape:groupmode="layer"
     id="layer2"
     inkscape:label="bg"
     style="display:inline">
    <rect
       style="mix-blend-mode:color-dodge;fill:url(#linearGradient1085);fill-opacity:1"
       id="rect1559"
       width="65"
       height="65"
       x="0"
       y="0" />
    <path
       style="mix-blend-mode:color-dodge;fill:url(#linearGradient1087);fill-opacity:1;stroke-width:0.276214"
       d="M 0,32.455097 V 0 H 32.455097 64.910193 V 32.455097 64.910193 H 32.455097 0 Z"
       id="path1635" />
    <path
       style="mix-blend-mode:color-dodge;fill:url(#linearGradient1089);fill-opacity:1;stroke-width:0.276214"
       d="M 0,32.455097 V 0 H 32.455097 64.910193 V 32.455097 64.910193 H 32.455097 0 Z"
       id="path1674" />
    <path
       style="mix-blend-mode:color-dodge;fill:url(#linearGradient1091);fill-opacity:1;stroke-width:0.276214"
       d="M 0,32.455097 V 0 H 32.455097 64.910193 V 32.455097 64.910193 H 32.455097 0 Z"
       id="path1750" />
    <path
       style="mix-blend-mode:color-dodge;fill:url(#linearGradient1093);fill-opacity:1;stroke-width:0.276214"
       d="M 0,32.455097 V 0 H 32.455097 64.910193 V 32.455097 64.910193 H 32.455097 0 Z"
       id="path1906" />
    <path
       style="mix-blend-mode:normal;fill:url(#linearGradient1761);fill-opacity:1;stroke-width:0.276214;paint-order:normal"
       d="M 0,32.455097 V 0 H 32.455097 64.910193 V 32.455097 64.910193 H 32.455097 0 Z"
       id="path1945" />
  </g>
  <g
     inkscape:label="图层 1"
     inkscape:groupmode="layer"
     id="layer1"
     style="display:inline;opacity:1"
     sodipodi:insensitive="true">
    <g
       transform="matrix(0.01083368,0,0,-0.01083368,-3.1510608,52.442225)"
       fill="#000000"
       stroke="none"
       id="g10">
      <path
         d="m 2160,2400 v -109 l -112,-3 -113,-3 -3,-112 -3,-113 h -109 -110 l -2,-337 -3,-338 -337,-3 -338,-2 v -105 -105 h 450 450 v 335 335 h 115 115 v 110 110 h 110 110 v 225 225 h -110 -110 z"
         id="path2" />
      <path
         d="m 3960,2400 v -110 h -450 -450 v -115 -115 h 335 335 v -110 -110 h -335 -335 v -115 -115 l 448,2 447,3 3,223 2,222 h 110 110 v 225 225 h -110 -110 z"
         id="path4" />
      <path
         d="m 5760,2400 v -110 l -447,-2 -448,-3 v -110 -110 l 338,-3 337,-2 v -110 -110 l -337,-2 -338,-3 v -110 -110 l 448,-3 447,-2 v -115 -115 l -787,2 -788,3 -3,113 -3,112 h -109 -110 v -115 -115 h -790 -790 v -105 -105 h 1800 1800 v 220 220 h -110 -110 v 225 225 h 110 110 v 225 225 h -110 -110 z"
         id="path6" />
      <path
         d="m 580,2175 v -115 h 450 450 v 115 115 H 1030 580 Z"
         id="path8" />
    </g>
  </g>
</svg>
